# xmcd
#
# Track frame offsets:
#	150
#	10242
#	25422
#	38719
#	49385
#	61825
#	77502
#	91950
#	102450
#	112789
#	124731
#	143371
#	154171
#	165686
#	183926
#	196704
#	211729
#	226627
#	237460
#	257957
#
# Disc length: 3958
#
# Revision: 2
# Processed by: cddbd v1.5.1PL0 Copyright (c) Steve Scherf et al.
# Submitted via: audiograbber 1.83.01
# Normalized: r1:DSETVAR1
#
DISCID=f80f7414
DTITLE=Various Artist - Soul Survivors 2 - Disc 2
DYEAR=1900
DGENRE=Soul
TTITLE0=Marvin Gaye and Tammi Terrell - Two Can Have A Party
TTITLE1=Wayne Gibson - Under My Thumb
TTITLE2=The Capitols - Cool Jerk
TTITLE3=The Young Holt Trio - Wack Wack
TTITLE4=Jackie Wilson - Soul Galore
TTITLE5=The O'Jays - I Love Music
TTITLE6=Labelle - Lady Marmalade
TTITLE7=The Detroit Emeralds - Do Me Right
TTITLE8=Tony Clarke - Landslide
TTITLE9=William Bell - Happy
TTITLE10=The Flower Shoppe - You've Come A Long Way Baby
TTITLE11=Jerry Williams - If You Ask Me
TTITLE12=The Contours - Baby Hit And Run
TTITLE13=Mary Love - You Turned My Bitter Into Sweet
TTITLE14=Mary Wilson - You're The Light
TTITLE15=Mel Williams - Can It Be Me
TTITLE16=Brenda Holloway - Starting The Hurt All Over Again
TTITLE17=Tobi Lark - Happiness Is Here
TTITLE18=The Pretenders - I Wanna Be Your Everything
TTITLE19=Booker T and The MG's - Green Onions
EXTD=
EXTT0=
EXTT1=
EXTT2=
EXTT3=
EXTT4=
EXTT5=
EXTT6=
EXTT7=
EXTT8=
EXTT9=
EXTT10=
EXTT11=
EXTT12=
EXTT13=
EXTT14=
EXTT15=
EXTT16=
EXTT17=
EXTT18=
EXTT19=
PLAYORDER=
